<svg height="64" viewBox="0 0 16.933333 16.933334" width="64" xmlns="http://www.w3.org/2000/svg" xmlns:xlink="http://www.w3.org/1999/xlink"><linearGradient id="a"><stop offset="0" stop-color="#d2e8c5"/><stop offset="1" stop-color="#396f01"/></linearGradient><radialGradient id="b" cx="72.068207" cy="153.40074" gradientTransform="matrix(2.39461 0 0 2.3952224 -157.38809 -78.892175)" gradientUnits="userSpaceOnUse" r=".507504" xlink:href="#a"/><radialGradient id="c" cx="70.659996" cy="154.13928" gradientTransform="matrix(2.39461 0 0 2.3952224 -157.38809 -78.892175)" gradientUnits="userSpaceOnUse" r=".507504" xlink:href="#a"/><radialGradient id="d" cx="70.569046" cy="152.56004" gradientTransform="matrix(2.39461 0 0 2.3952224 -157.38809 -78.892175)" gradientUnits="userSpaceOnUse" r=".507504" xlink:href="#a"/><radialGradient id="e" cx="69.260544" cy="150.64842" gradientTransform="matrix(2.39461 0 0 2.3952224 -157.38809 -78.892175)" gradientUnits="userSpaceOnUse" r=".507504" xlink:href="#a"/><radialGradient id="f" cx="68.096848" cy="152.56004" gradientTransform="matrix(2.39461 0 0 2.3952224 -157.38809 -78.892175)" gradientUnits="userSpaceOnUse" r=".507504" xlink:href="#a"/><radialGradient id="g" cx="67.987274" cy="154.13928" gradientTransform="matrix(2.39461 0 0 2.3952224 -157.38809 -78.892175)" gradientUnits="userSpaceOnUse" r=".507504" xlink:href="#a"/><radialGradient id="h" cx="69.260544" cy="156.15021" gradientTransform="matrix(2.39461 0 0 2.3952224 -157.38809 -78.892175)" gradientUnits="userSpaceOnUse" r=".507504" xlink:href="#a"/><radialGradient id="i" cx="66.452576" cy="153.40074" gradientTransform="matrix(2.370299 0 0 2.3709212 -155.69813 -75.164373)" gradientUnits="userSpaceOnUse" r=".507504" xlink:href="#a"/><radialGradient id="j" cx="69.320831" cy="152.79254" gradientTransform="matrix(2.3946102 0 0 2.3576483 -157.38811 -73.128259)" gradientUnits="userSpaceOnUse" r="2.807815"><stop offset="0" stop-color="#fff"/><stop offset="1" stop-color="#92adb9"/></radialGradient><g stroke="#000" stroke-linecap="round" stroke-width=".165" transform="translate(0 -280.06665)"><g stroke-linejoin="round"><ellipse cx="8.463535" cy="288.53677" fill="url(#j)" rx="6.526067" ry="6.422235"/><ellipse cx="8.463535" cy="288.53677" fill="none" rx="6.52607" ry="2.048323"/><ellipse cx="1.814343" cy="288.53674" fill="url(#i)" rx="1.007386" ry="1.007651"/><ellipse cx="5.677303" cy="286.52307" fill="url(#f)" rx="1.017719" ry="1.017979"/><ellipse cx="11.597254" cy="286.52307" fill="url(#d)" rx="1.017719" ry="1.017979"/></g><path d="m8.4639067 282.11495c-4.42085 2.5836-4.41176 9.82622 0 12.84427 4.4117643-3.01805 4.4208573-10.26067 0-12.84427z" fill="none" stroke-miterlimit="0"/><ellipse cx="8.463902" cy="295.12231" fill="url(#h)" rx="1.017719" ry="1.017979" stroke-linejoin="round"/><ellipse cx="8.463902" cy="281.94431" fill="url(#e)" rx="1.017719" ry="1.017979" stroke-linejoin="round"/><ellipse cx="11.815042" cy="290.30566" fill="url(#c)" rx="1.017719" ry="1.017979" stroke-linejoin="round"/><ellipse cx="5.414918" cy="290.30566" fill="url(#g)" rx="1.017719" ry="1.017979" stroke-linejoin="round"/><ellipse cx="15.187158" cy="288.53677" fill="url(#b)" rx="1.017719" ry="1.017979" stroke-linejoin="round"/></g></svg>